<svg width="180" height="232" viewBox="0 0 180 232" fill="none" xmlns="http://www.w3.org/2000/svg">
<mask id="mask0" mask-type="alpha" maskUnits="userSpaceOnUse" x="57" y="104" width="107" height="111">
<path d="M80.507 201.227C49.4454 180.529 54.3713 153.923 67.7645 145.331C76.931 138.277 73.2727 138.744 81.041 129.453C87.0758 122.236 91.4271 123.09 99.0917 111.187C101.763 108.188 110.043 103.54 120.014 105.122C133.327 107.234 148.881 117.566 157.941 140.864C166.644 163.242 163.743 177.545 155.245 189.428C146.169 199.5 139.876 206.355 128.674 212.02C117.727 217.556 95.3744 211.134 80.507 201.227Z" fill="#840D30"/>
</mask>
<g mask="url(#mask0)">
<path d="M80.507 201.227C49.4454 180.529 54.3713 153.923 67.7645 145.331C76.931 138.277 73.2727 138.744 81.041 129.453C87.0758 122.236 91.4271 123.09 99.0917 111.187C101.763 108.188 110.043 103.54 120.014 105.122C133.327 107.234 148.881 117.566 157.941 140.864C166.644 163.242 163.743 177.545 155.245 189.428C146.169 199.5 139.876 206.355 128.674 212.02C117.727 217.556 95.3744 211.134 80.507 201.227Z" fill="#6C0A28"/>
<path d="M141.651 135.527C143.569 139.925 141.554 145.047 137.152 146.966C132.749 148.886 129.035 148.708 127.117 144.31C125.2 139.912 122.435 130.148 126.838 128.228C131.241 126.308 139.734 131.129 141.651 135.527Z" fill="#FFB8C1"/>
<path d="M141.344 127.1C108.457 201.608 67.2053 182.154 50.9078 162.56L46.6349 212.423L130.177 238.364L169.802 168.5C161.194 151.566 130.231 66.5194 141.344 127.1Z" fill="#921B3E"/>
<path d="M67.0122 154.727C63.405 156.523 65.6833 151.445 68.6906 149.422C70.0922 149.116 70.8951 149.895 73.2653 148.647C78.235 146.029 87.1225 140.982 93.7348 133.623C99.7548 126.924 102.869 119.712 102.978 118.618C103.205 116.324 101.052 117.018 99.9774 115.962C99.0838 113.913 103.433 110.797 106.829 110.84C111.195 110.896 106.186 119.245 103.552 124.16C97.7962 134.902 76.8505 149.827 67.0122 154.727Z" fill="#FFB8C1"/>
<path d="M80.1676 156.727C75.8873 161.651 80.9471 176.825 73.6519 170.355C68.4453 165.738 66.7225 160.368 68.161 157.763C70.384 153.736 84.3626 147.231 92.4187 139.998C97.6338 135.315 101.158 130.756 103.971 126.678C110.91 116.621 108.323 124.433 103.844 133.113C99.3646 141.792 83.6835 152.682 80.1676 156.727Z" fill="#921B3E"/>
<path d="M171.807 140.11C177.808 153.872 172.444 222.991 116.421 222.961C111.439 215.044 183.906 186.808 131.569 162.241C119.341 155.956 135.284 130.048 142.484 126.909C149.362 125.133 165.807 126.348 171.807 140.11Z" fill="#6C0A28"/>
<ellipse cx="104.683" cy="218.327" rx="16.6434" ry="16.6254" transform="rotate(-23.5593 104.683 218.327)" fill="#6C0A28"/>
<path d="M89.0158 124.337C83.2533 126.316 75.0389 135.778 77.0841 137.275C81.6539 140.62 97.1454 122.659 89.0158 124.337Z" fill="#921B3E"/>
</g>
<path d="M61.4957 21.8925C65.7639 18.3448 61.3585 17.3664 56.9409 17.764C55.9911 19.0953 56.7522 21.7524 54.722 25.3098C25.574 76.3838 61.5002 120.178 84.8903 135.207C84.9355 135.619 90.5274 135.5 89.6518 130.685C33.1935 98.9365 42.9723 46.7631 57.3226 26.7695C57.9168 25.9416 60.8902 22.6063 61.4957 21.8925Z" fill="#79A65E"/>
</svg>
