<svg viewBox="0 0 609 291" xmlns="http://www.w3.org/2000/svg" xmlns:xlink="http://www.w3.org/1999/xlink"><defs><path d="M36.162 13.026C1.854-20.326-1.828 19.122.597 34.246 5.49 64.763 12.195 45.078 6.019 97.881c-7.977 68.208 54.534 80.495 75.045 68.258l24.656-14.71c55.421-33.066 6.649-82.084-9.792-94.763-10.571-7.304-25.249-10.086-59.766-43.641z" id="a"/><path d="M2.193 3.468C-.042 8.648-.157 19.862.093 24.25l12.33-16.528L7.298.126c-.45.071-3.121-1.259-5.106 3.342z" id="c"/><path d="M92.561 56.23c-10.21-7.18-24.32-10.017-57.752-42.874C25.411 4.119 17.886.759 12.846.109 9.469-.536 10.54 1.817 8.48 3.38c-2.352 1.07-3.423-1.282-4.85 1.897C-.953 12.6-.346 26.283.883 33.596c4.983 29.636 11.23 10.613 5.8 61.751-7.015 66.058 53.077 78.557 72.641 66.885l23.518-14.032c52.865-31.54 5.611-79.523-10.282-91.97z" id="e"/><path d="M123.921 77.122c-6.087 12.298-26.259 54.778-58.534 59.5-9.116 1.003-11.865.51-20.153-5.681-3.679-2.172-7.765-3.271-11.647-3.825-8.737-1.245-16.658-3.25-22.872-12.551C-3.35 93.515-2.275 58.51 6.488 28.97 18.078-5.971 55.202-3.601 82.362 6.68c35.613 13.48 56.364 34.574 41.56 70.44z" id="g"/><path d="M160.059 37.32c18.945-52.31-24.632-37.357-39.502-27.557-30.01 19.777-5.938 17.473-64.863 36.168-76.116 24.15-59.245 96.287-36.464 112.18l27.384 19.103c61.556 42.942 90.19-32.19 95.767-55.678 2.687-14.697-1.383-31.587 17.678-84.216z" id="i"/><path d="M23.032.002C16.472.109 4.531 5.348 0 7.712l23.416 5.167 5.601-9.062c-.291-.443-.158-3.91-5.985-3.815z" id="k"/><path d="M23.173 96.425C-7.889 75.727-2.963 49.12 10.43 40.529c9.167-7.054 5.51-6.587 13.277-15.878 6.035-7.217 10.386-6.363 18.051-18.266C44.43 3.385 52.71-1.262 62.68.32c13.313 2.112 28.867 12.444 37.927 35.742 8.703 22.378 5.802 36.68-2.697 48.564-9.075 10.072-15.368 16.927-26.57 22.592-10.947 5.536-33.3-.886-48.167-10.793z" id="m"/><path d="M.728 19.219C4.403.242 18.098-2.726 24.88 1.954c5.203 2.967 4.25 1.313 10.241 3.166 4.654 1.44 5.116 3.689 12.335 4.97 1.967.676 5.843 3.702 7.082 8.78 1.653 6.783-.172 16.279-9.489 25.266-8.949 8.633-16.362 10.108-23.737 8.425-6.627-2.321-11.16-3.956-16.106-8.174C.372 40.265-1.03 28.303.728 19.219z" id="o"/><path d="M12.752 14.555c-14.793 22.22-15.5 36.116-8.307 47.409 4.01 6.299 14.452 9.255 20.999 14.383 6.547 5.129 6.655 6.916 13.24 10.836 11.273 6.71 33.506 5.418 47.204-21.148C93.915 50.467 96.88 30.653 74.667 17.43 54.305 5.309 58.083 3.848 49.357.394 30.75-2.31 17.687 9.613 12.752 14.554z" id="q"/></defs><g fill="none" fill-rule="evenodd"><rect fill="#E5D3C1" fill-rule="nonzero" y="51.18" width="608.749" height="193.341" rx="96.671"/><g transform="translate(61.197 24.459)"><mask id="b" fill="#fff"><use xlink:href="#a"/></mask><g mask="url(#b)"><g transform="translate(-3.58 -14.383)"><path d="M39.741 27.41C5.433-5.944 1.751 33.505 4.176 48.628c4.895 30.519 11.598 10.833 5.422 63.637-7.977 68.208 54.534 80.495 75.045 68.258l24.656-14.71c55.421-33.066 6.65-82.084-9.792-94.763-10.57-7.304-25.249-10.087-59.766-43.642z" fill="#E9FB7D" fill-rule="nonzero"/><path d="M58.816 13.465C21.951-21.518 17.023 20.86 19.341 37.018c4.678 32.61 12.473 11.353 4.51 68.104-10.287 73.307 57.978 85.069 80.744 71.487l27.366-16.328c61.515-36.701 9.143-88.153-8.597-101.376-11.426-7.592-27.458-10.244-64.548-45.44z" fill="#CADD55" fill-rule="nonzero"/><ellipse fill="#C07362" fill-rule="nonzero" transform="rotate(-30.821 5.574 29.153)" cx="5.574" cy="29.153" rx="4.065" ry="4.066"/><ellipse fill="#C07362" fill-rule="nonzero" transform="rotate(-30.821 12.48 20.89)" cx="12.479" cy="20.891" rx="3.049" ry="3.049"/><ellipse fill="#C07362" fill-rule="nonzero" transform="rotate(-30.821 10.726 24.896)" cx="10.726" cy="24.896" rx="3.049" ry="3.049"/><ellipse fill="#C07362" fill-rule="nonzero" transform="rotate(-30.821 5.152 23.487)" cx="5.152" cy="23.487" rx="3.049" ry="3.049"/><ellipse fill="#C07362" fill-rule="nonzero" transform="rotate(-30.821 18.233 20.12)" cx="18.233" cy="20.121" rx="2.287" ry="2.287"/><ellipse fill="#C07362" fill-rule="nonzero" transform="rotate(-30.821 11.533 15.833)" cx="11.533" cy="15.833" rx="2.287" ry="2.287"/><ellipse fill="#C07362" fill-rule="nonzero" transform="rotate(-30.821 19.641 14.547)" cx="19.641" cy="14.547" rx="2.287" ry="2.287"/><ellipse fill="#C07362" fill-rule="nonzero" transform="rotate(-30.821 8.387 19.486)" cx="8.387" cy="19.486" rx="3.303" ry="3.303"/><ellipse fill="#C07362" fill-rule="nonzero" transform="rotate(-30.821 15.89 16.193)" cx="15.89" cy="16.193" rx="2.795" ry="2.795"/><ellipse fill="#8C5549" fill-rule="nonzero" transform="rotate(-30.821 23.188 25.45)" cx="23.188" cy="25.45" rx="2.287" ry="2.287"/><ellipse fill="#C07362" fill-rule="nonzero" transform="rotate(-30.821 16.91 26.829)" cx="16.909" cy="26.829" rx="4.319" ry="4.32"/><ellipse fill="#C07362" fill-rule="nonzero" transform="rotate(-30.821 23.03 18.739)" cx="23.03" cy="18.739" rx="4.065" ry="4.066"/><ellipse fill="#8C5549" fill-rule="nonzero" transform="rotate(-30.821 30.17 21.284)" cx="30.17" cy="21.284" rx="2.287" ry="2.287"/><ellipse fill="#C07362" fill-rule="nonzero" transform="rotate(-30.821 11.578 33.265)" cx="11.578" cy="33.265" rx="2.541" ry="2.541"/><ellipse fill="#C07362" fill-rule="nonzero" transform="rotate(-30.821 17.669 37.028)" cx="17.669" cy="37.028" rx="1.779" ry="1.779"/><ellipse fill="#8C5549" fill-rule="nonzero" transform="rotate(-30.821 29.55 25.205)" cx="29.55" cy="25.205" rx="1.779" ry="1.779"/><ellipse fill="#8C5549" fill-rule="nonzero" transform="rotate(-30.821 61.291 53.61)" cx="61.291" cy="53.61" rx="1.779" ry="1.779"/><ellipse fill="#8C5549" fill-rule="nonzero" transform="rotate(-30.821 26.353 49.6)" cx="26.353" cy="49.6" rx="1.779" ry="1.779"/><ellipse fill="#8C5549" fill-rule="nonzero" transform="rotate(-30.821 26.382 37.747)" cx="26.382" cy="37.747" rx="1.779" ry="1.779"/><ellipse fill="#8C5549" fill-rule="nonzero" transform="rotate(-30.821 105.327 78.823)" cx="105.327" cy="78.823" rx="1.779" ry="1.779"/><ellipse fill="#8C5549" fill-rule="nonzero" transform="rotate(-30.821 85.656 68.663)" cx="85.656" cy="68.663" rx="1.779" ry="1.779"/><ellipse fill="#8C5549" fill-rule="nonzero" transform="rotate(-30.821 88.807 98.74)" cx="88.807" cy="98.74" rx="1.779" ry="1.779"/><ellipse fill="#8C5549" fill-rule="nonzero" transform="rotate(-30.821 84.634 94.72)" cx="84.634" cy="94.72" rx="1.779" ry="1.779"/><ellipse fill="#8C5549" fill-rule="nonzero" transform="rotate(-30.821 77.575 94.789)" cx="77.575" cy="94.789" rx="1.779" ry="1.779"/><ellipse fill="#C07362" fill-rule="nonzero" transform="rotate(-30.821 18.976 72.939)" cx="18.976" cy="72.939" rx="1.779" ry="1.779"/><ellipse fill="#C07362" fill-rule="nonzero" transform="rotate(-30.821 15.16 101.255)" cx="15.159" cy="101.255" rx="1.27" ry="1.271"/><ellipse fill="#8C5549" fill-rule="nonzero" transform="rotate(-30.821 41.101 112.999)" cx="41.101" cy="112.999" rx="1.779" ry="1.779"/><ellipse fill="#C07362" fill-rule="nonzero" transform="rotate(-30.821 22.715 147.64)" cx="22.715" cy="147.641" rx="1.27" ry="1.271"/><ellipse fill="#8C5549" fill-rule="nonzero" transform="rotate(-30.821 59.075 140.15)" cx="59.075" cy="140.15" rx="1.779" ry="1.779"/><ellipse fill="#C07362" fill-rule="nonzero" transform="rotate(-30.821 51.49 177.52)" cx="51.489" cy="177.52" rx="1.524" ry="1.525"/><ellipse fill="#8C5549" fill-rule="nonzero" transform="rotate(-30.821 68.878 158.565)" cx="68.878" cy="158.565" rx="1.779" ry="1.779"/><ellipse fill="#C07362" fill-rule="nonzero" transform="rotate(-30.821 34.44 164.317)" cx="34.44" cy="164.317" rx="1.779" ry="1.779"/><ellipse fill="#C07362" fill-rule="nonzero" transform="rotate(-30.821 19.632 161.316)" cx="19.632" cy="161.316" rx="2.795" ry="2.795"/><ellipse fill="#8C5549" fill-rule="nonzero" transform="rotate(-30.821 37.13 133.122)" cx="37.131" cy="133.122" rx="1.27" ry="1.271"/><ellipse fill="#C07362" fill-rule="nonzero" transform="rotate(-30.821 19.388 118.26)" cx="19.388" cy="118.261" rx="1.779" ry="1.779"/><ellipse fill="#8C5549" fill-rule="nonzero" transform="rotate(-30.821 58.7 80.012)" cx="58.699" cy="80.012" rx="1.27" ry="1.271"/><ellipse fill="#8C5549" fill-rule="nonzero" transform="rotate(-30.821 60.126 102.24)" cx="60.126" cy="102.24" rx="1.779" ry="1.779"/><ellipse fill="#8C5549" fill-rule="nonzero" transform="rotate(-30.821 77.194 108.036)" cx="77.194" cy="108.036" rx="1.779" ry="1.779"/><ellipse fill="#8C5549" fill-rule="nonzero" transform="rotate(-30.821 70.351 126.32)" cx="70.351" cy="126.321" rx="1.779" ry="1.779"/><ellipse fill="#8C5549" fill-rule="nonzero" transform="rotate(-30.821 82.604 140.907)" cx="82.604" cy="140.907" rx="1.779" ry="1.779"/><ellipse fill="#8C5549" fill-rule="nonzero" transform="rotate(-30.821 66.498 62.339)" cx="66.498" cy="62.339" rx="1.779" ry="1.779"/><ellipse fill="#8C5549" fill-rule="nonzero" transform="rotate(-30.821 42.31 46.59)" cx="42.309" cy="46.59" rx="1.779" ry="1.779"/><ellipse fill="#8C5549" fill-rule="nonzero" transform="rotate(-30.821 39.064 55.036)" cx="39.064" cy="55.036" rx="1.779" ry="1.779"/><ellipse fill="#8C5549" fill-rule="nonzero" transform="rotate(-30.821 48.741 53.404)" cx="48.741" cy="53.404" rx="1.779" ry="1.779"/><ellipse fill="#8C5549" fill-rule="nonzero" transform="rotate(-30.821 74.105 87.982)" cx="74.105" cy="87.982" rx="1.779" ry="1.779"/><ellipse fill="#8C5549" fill-rule="nonzero" transform="rotate(-30.821 93.685 99.972)" cx="93.685" cy="99.972" rx="1.779" ry="1.779"/><ellipse fill="#8C5549" fill-rule="nonzero" transform="rotate(-30.821 109.028 97.919)" cx="109.028" cy="97.919" rx="1.779" ry="1.779"/><ellipse fill="#8C5549" fill-rule="nonzero" transform="rotate(-30.821 109.416 81.709)" cx="109.416" cy="81.709" rx="1.779" ry="1.779"/><ellipse fill="#8C5549" fill-rule="nonzero" transform="rotate(-30.821 80.272 60.63)" cx="80.272" cy="60.631" rx="1.779" ry="1.779"/><ellipse fill="#8C5549" fill-rule="nonzero" transform="rotate(-30.821 87.73 111.81)" cx="87.73" cy="111.81" rx="1.779" ry="1.779"/><ellipse fill="#8C5549" fill-rule="nonzero" transform="rotate(-30.821 88.656 160.968)" cx="88.656" cy="160.968" rx="1.779" ry="1.779"/><ellipse fill="#8C5549" fill-rule="nonzero" transform="rotate(-30.821 83.911 176.818)" cx="83.911" cy="176.818" rx="1.779" ry="1.779"/><ellipse fill="#8C5549" fill-rule="nonzero" transform="rotate(-30.821 70.144 175.563)" cx="70.144" cy="175.563" rx="1.779" ry="1.779"/><ellipse fill="#8C5549" fill-rule="nonzero" transform="rotate(-30.821 81.751 169.23)" cx="81.751" cy="169.23" rx="1.779" ry="1.779"/><ellipse fill="#8C5549" fill-rule="nonzero" transform="rotate(-30.821 94.898 174.406)" cx="94.898" cy="174.406" rx="1.779" ry="1.779"/><ellipse fill="#8C5549" fill-rule="nonzero" transform="rotate(-30.821 94.483 165.776)" cx="94.483" cy="165.776" rx="1.779" ry="1.779"/><ellipse fill="#8C5549" fill-rule="nonzero" transform="rotate(-30.821 26.144 28.42)" cx="26.144" cy="28.421" rx="1.779" ry="1.779"/><ellipse fill="#8C5549" fill-rule="nonzero" transform="rotate(-30.821 34.16 28.964)" cx="34.16" cy="28.964" rx="1.779" ry="1.779"/><ellipse fill="#C07362" fill-rule="nonzero" transform="rotate(-30.821 4.775 35.252)" cx="4.775" cy="35.252" rx="1.779" ry="1.779"/><ellipse fill="#C07362" fill-rule="nonzero" transform="rotate(-30.821 10.518 38.927)" cx="10.518" cy="38.927" rx="1.27" ry="1.271"/><ellipse fill="#8C5549" fill-rule="nonzero" transform="rotate(-30.821 83.52 122.607)" cx="83.52" cy="122.607" rx="1.27" ry="1.271"/><ellipse fill="#8C5549" fill-rule="nonzero" transform="rotate(-30.821 85.606 89.406)" cx="85.606" cy="89.406" rx="1.27" ry="1.271"/><ellipse fill="#8C5549" fill-rule="nonzero" transform="rotate(-30.821 84.711 98.816)" cx="84.711" cy="98.816" rx="1.27" ry="1.271"/><ellipse fill="#8C5549" fill-rule="nonzero" transform="rotate(-30.821 93.567 76.963)" cx="93.567" cy="76.963" rx="1.27" ry="1.271"/><ellipse fill="#8C5549" fill-rule="nonzero" transform="rotate(-30.821 75.204 66.022)" cx="75.204" cy="66.022" rx="1.27" ry="1.271"/><ellipse fill="#8C5549" fill-rule="nonzero" transform="rotate(-30.821 53.154 66.75)" cx="53.154" cy="66.75" rx="1.27" ry="1.271"/><ellipse fill="#8C5549" fill-rule="nonzero" transform="rotate(-30.821 70.754 104.185)" cx="70.754" cy="104.185" rx="1.27" ry="1.271"/><ellipse fill="#8C5549" fill-rule="nonzero" transform="rotate(-30.821 53.197 48.97)" cx="53.197" cy="48.971" rx="1.27" ry="1.271"/><ellipse fill="#8C5549" fill-rule="nonzero" transform="rotate(-30.821 38.51 32.287)" cx="38.51" cy="32.287" rx="1.27" ry="1.271"/><ellipse fill="#C07362" fill-rule="nonzero" transform="rotate(-30.821 17.852 33.367)" cx="17.852" cy="33.367" rx="1.27" ry="1.271"/><ellipse fill="#8C5549" fill-rule="nonzero" transform="rotate(-30.821 35.997 26.093)" cx="35.997" cy="26.093" rx="1.27" ry="1.271"/><ellipse fill="#8C5549" fill-rule="nonzero" transform="rotate(-30.821 134.315 128.4)" cx="134.315" cy="128.4" rx="1.27" ry="1.271"/><ellipse fill="#8C5549" fill-rule="nonzero" transform="rotate(-30.821 130.204 134.404)" cx="130.204" cy="134.404" rx="1.27" ry="1.271"/><ellipse fill="#8C5549" fill-rule="nonzero" transform="rotate(-30.821 125.925 138.14)" cx="125.925" cy="138.14" rx="1.27" ry="1.271"/><ellipse fill="#8C5549" fill-rule="nonzero" transform="rotate(-30.821 127.395 142.589)" cx="127.395" cy="142.589" rx="1.27" ry="1.271"/><ellipse fill="#8C5549" fill-rule="nonzero" transform="rotate(-30.821 124.073 146.938)" cx="124.073" cy="146.938" rx="1.27" ry="1.271"/><ellipse fill="#8C5549" fill-rule="nonzero" transform="rotate(-30.821 105.318 118.478)" cx="105.318" cy="118.478" rx="1.27" ry="1.271"/><ellipse fill="#8C5549" fill-rule="nonzero" transform="rotate(-30.821 106.17 126.847)" cx="106.169" cy="126.847" rx="1.27" ry="1.271"/><ellipse fill="#8C5549" fill-rule="nonzero" transform="rotate(-30.821 100.645 104.696)" cx="100.645" cy="104.696" rx="1.27" ry="1.271"/><ellipse fill="#8C5549" fill-rule="nonzero" transform="rotate(-30.821 99.33 108.44)" cx="99.329" cy="108.44" rx="1.27" ry="1.271"/><ellipse fill="#8C5549" fill-rule="nonzero" transform="rotate(-30.821 94.418 85.332)" cx="94.418" cy="85.332" rx="1.779" ry="1.779"/><ellipse fill="#8C5549" fill-rule="nonzero" transform="rotate(-30.821 102.607 86.66)" cx="102.607" cy="86.66" rx="4.065" ry="4.066"/><ellipse fill="#8C5549" fill-rule="nonzero" transform="rotate(-30.821 99.01 96.499)" cx="99.009" cy="96.499" rx="4.065" ry="4.066"/><ellipse fill="#8C5549" fill-rule="nonzero" transform="rotate(-30.821 102.937 94.156)" cx="102.937" cy="94.156" rx="4.065" ry="4.066"/><ellipse fill="#8C5549" fill-rule="nonzero" transform="rotate(-30.821 91.612 92.036)" cx="91.612" cy="92.036" rx="4.065" ry="4.066"/><ellipse fill="#8C5549" fill-rule="nonzero" transform="rotate(-30.821 112.706 90.694)" cx="112.706" cy="90.694" rx="6.606" ry="6.607"/><ellipse fill="#8C5549" fill-rule="nonzero" transform="rotate(-30.821 106.575 103.229)" cx="106.575" cy="103.229" rx="4.065" ry="4.066"/><ellipse fill="#8C5549" fill-rule="nonzero" transform="rotate(-30.821 102.751 134.508)" cx="102.751" cy="134.508" rx="4.065" ry="4.066"/><ellipse fill="#8C5549" fill-rule="nonzero" transform="rotate(-30.821 109.874 144.462)" cx="109.874" cy="144.462" rx="4.065" ry="4.066"/><ellipse fill="#8C5549" fill-rule="nonzero" transform="rotate(-30.821 99.745 152.28)" cx="99.745" cy="152.28" rx="4.065" ry="4.066"/><ellipse fill="#8C5549" fill-rule="nonzero" transform="rotate(-30.821 97.862 102.51)" cx="97.862" cy="102.51" rx="2.033" ry="2.033"/><ellipse fill="#8C5549" fill-rule="nonzero" transform="rotate(-30.821 115.992 101.162)" cx="115.992" cy="101.162" rx="4.065" ry="4.066"/><ellipse fill="#8C5549" fill-rule="nonzero" transform="rotate(-30.821 111.431 113.352)" cx="111.431" cy="113.352" rx="4.065" ry="4.066"/><ellipse fill="#8C5549" fill-rule="nonzero" transform="rotate(-30.821 118.332 106.57)" cx="118.332" cy="106.571" rx="2.287" ry="2.287"/><ellipse fill="#8C5549" fill-rule="nonzero" transform="rotate(-30.821 112.754 106.644)" cx="112.754" cy="106.644" rx="4.065" ry="4.066"/><ellipse fill="#8C5549" fill-rule="nonzero" transform="rotate(-30.821 130.494 122.987)" cx="130.494" cy="122.987" rx="6.352" ry="6.353"/><ellipse fill="#8C5549" fill-rule="nonzero" transform="rotate(-30.821 131.587 139.2)" cx="131.587" cy="139.201" rx="4.065" ry="4.066"/><ellipse fill="#8C5549" fill-rule="nonzero" transform="rotate(-30.821 134.572 130.318)" cx="134.572" cy="130.318" rx="4.065" ry="4.066"/><ellipse fill="#8C5549" fill-rule="nonzero" transform="rotate(-30.821 124.014 135.434)" cx="124.014" cy="135.434" rx="4.065" ry="4.066"/><ellipse fill="#8C5549" fill-rule="nonzero" transform="rotate(-30.821 103.774 108.452)" cx="103.774" cy="108.452" rx="2.541" ry="2.541"/><ellipse fill="#8C5549" fill-rule="nonzero" transform="rotate(-30.821 118.273 95.066)" cx="118.273" cy="95.066" rx="4.065" ry="4.066"/><ellipse fill="#8C5549" fill-rule="nonzero" transform="rotate(-30.821 121.27 116.95)" cx="121.27" cy="116.95" rx="4.065" ry="4.066"/><ellipse fill="#8C5549" fill-rule="nonzero" transform="rotate(-30.821 131.997 114.1)" cx="131.997" cy="114.101" rx="4.065" ry="4.066"/><ellipse fill="#8C5549" fill-rule="nonzero" transform="rotate(-30.821 123.727 110.158)" cx="123.727" cy="110.158" rx="2.541" ry="2.541"/><ellipse fill="#8C5549" fill-rule="nonzero" transform="rotate(-30.821 115.41 125.476)" cx="115.41" cy="125.476" rx="8.893" ry="8.894"/><ellipse fill="#8C5549" fill-rule="nonzero" transform="rotate(-30.821 105.72 168.245)" cx="105.719" cy="168.245" rx="4.065" ry="4.066"/><ellipse fill="#8C5549" fill-rule="nonzero" transform="rotate(-30.821 114.011 163.298)" cx="114.011" cy="163.298" rx="4.065" ry="4.066"/><ellipse fill="#8C5549" fill-rule="nonzero" transform="rotate(-30.821 103.908 160.745)" cx="103.908" cy="160.745" rx="2.287" ry="2.287"/><ellipse fill="#8C5549" fill-rule="nonzero" transform="rotate(-30.821 120.22 154.86)" cx="120.219" cy="154.86" rx="4.065" ry="4.066"/><ellipse fill="#8C5549" fill-rule="nonzero" transform="rotate(-30.821 115.518 152.93)" cx="115.518" cy="152.93" rx="2.033" ry="2.033"/><ellipse fill="#8C5549" fill-rule="nonzero" transform="rotate(-30.821 120.156 144.837)" cx="120.156" cy="144.837" rx="4.065" ry="4.066"/><ellipse fill="#8C5549" fill-rule="nonzero" transform="scale(1 -1) rotate(30.821 590.331 0)" cx="92.025" cy="137.357" rx="4.065" ry="4.066"/><ellipse fill="#8C5549" fill-rule="nonzero" transform="rotate(-30.821 90.22 126.894)" cx="90.22" cy="126.894" rx="4.827" ry="4.828"/><ellipse fill="#8C5549" fill-rule="nonzero" transform="rotate(-30.821 84.973 134.463)" cx="84.973" cy="134.463" rx="2.541" ry="2.541"/><ellipse fill="#8C5549" fill-rule="nonzero" transform="rotate(-30.821 81.94 127.396)" cx="81.94" cy="127.396" rx="2.033" ry="2.033"/><ellipse fill="#8C5549" fill-rule="nonzero" transform="rotate(-30.821 98.41 128.222)" cx="98.409" cy="128.222" rx="2.033" ry="2.033"/><ellipse fill="#8C5549" fill-rule="nonzero" transform="rotate(-30.821 104.721 148.72)" cx="104.721" cy="148.72" rx="2.033" ry="2.033"/><ellipse fill="#8C5549" fill-rule="nonzero" transform="rotate(-30.821 102.47 142.962)" cx="102.469" cy="142.962" rx="2.033" ry="2.033"/><ellipse fill="#8C5549" fill-rule="nonzero" transform="rotate(-30.821 92.25 152.61)" cx="92.249" cy="152.61" rx="2.033" ry="2.033"/><ellipse fill="#8C5549" fill-rule="nonzero" transform="rotate(-30.821 116.947 138.466)" cx="116.947" cy="138.466" rx="2.033" ry="2.033"/><ellipse fill="#8C5549" fill-rule="nonzero" transform="rotate(-30.821 110.021 155.618)" cx="110.021" cy="155.618" rx="2.033" ry="2.033"/><ellipse fill="#8C5549" fill-rule="nonzero" transform="rotate(-30.821 98.005 115.148)" cx="98.005" cy="115.148" rx="2.795" ry="2.795"/><ellipse fill="#8C5549" fill-rule="nonzero" transform="rotate(-30.821 96.333 121.768)" cx="96.333" cy="121.768" rx="2.033" ry="2.033"/><ellipse fill="#8C5549" fill-rule="nonzero" transform="rotate(-30.821 123.84 99.438)" cx="123.84" cy="99.438" rx="4.065" ry="4.066"/><ellipse fill="#8C5549" fill-rule="nonzero" transform="rotate(-30.821 129.312 107.122)" cx="129.312" cy="107.122" rx="2.795" ry="2.795"/><g transform="translate(18.934 9.6)"><mask id="d" fill="#fff"><use xlink:href="#c"/></mask><g mask="url(#d)" fill="#8C5549" fill-rule="nonzero"><g transform="translate(-6.344 2.07)"><ellipse transform="rotate(-30.821 5.644 8.45)" cx="5.644" cy="8.45" rx="2.287" ry="2.287"/><path d="M8.03 12.944a4.32 4.32 0 1 1-7.42 4.427 4.32 4.32 0 0 1 7.42-4.427z"/><ellipse transform="rotate(-30.821 10.44 7.067)" cx="10.441" cy="7.067" rx="4.065" ry="4.066"/><ellipse transform="rotate(-30.821 6.615 3.136)" cx="6.615" cy="3.136" rx="2.287" ry="2.287"/></g></g></g></g></g></g><path d="M60.73 1.337c-1.073 10.811 7.638 21.56 12.128 25.582 2.702 9.032 5.9 22.498-2.922 4.109-8.822-18.39-16.409-23.521-18.554-24.114 3.938-5.302 9.691-9.03 9.348-5.577z" fill="#C07362" fill-rule="nonzero"/><path d="M61.035 1.405c-.306 10.3 10.136 24.269 14.39 28.397 2.96 8.822 5.09 20.231-5.294 2.826-2.047-3.432-.313-4.8-4.474-11.957C61.68 13.829 55.148 6.963 53.019 6.187c3.198-4.845 8.113-8.072 8.016-4.782z" fill="#623228" fill-rule="nonzero"/><g transform="translate(63.956 27.542)"><mask id="f" fill="#fff"><use xlink:href="#e"/></mask><g mask="url(#f)" fill-rule="nonzero"><g transform="translate(-1.2 -1.973)"><path d="M34.94 13.09C1.235-20.144-1.854 18.62.686 33.528 5.811 63.613 12.075 44.329 6.732 96.2c-6.903 67.005 53.917 79.863 73.672 68.077l23.748-14.17c53.38-31.847 5.442-80.671-10.67-93.347-10.35-7.316-24.628-10.235-58.541-43.671z" fill="#FFF7E3"/><path d="M59.805 92.738C32.968 45.71 18.798 21.388 5.913 4.608l4.903-2.926c10.952 24.687 25.99 48.043 52.449 88.992 4.228 7.086 12.92 5.65 21.115 11.466 10.655 7.56-6.22 19.193 3.405 31.89 9.279 12.244 13.47 14.779 21.469 13.7L86.7 161.185c5.534-6.323 7.777-12.592-.387-26.276-8.165-13.685-25.591-4.738-27.183-17.705-1.224-9.973 4.902-17.38.674-24.466z" fill="#E3D5B0"/><path d="M65.208 104.796c-2.972 3.06-5.751 11.77 1.889 17.647 4.47-8.325 1.903-13.047-1.89-17.647z" fill="#FFF7E3"/><path d="M65.303 105.867c-1.941 1.158-4.992 12.075.726 11.769 5.717-.306 1.528-9.152-.726-11.77z" fill="#623228"/><ellipse fill="#FFF" transform="rotate(-30.821 64.625 115.27)" cx="64.625" cy="115.27" rx="1.142" ry="1.153"/><path d="M71.049 101.31c4.105-1.161 13.089.53 14.632 10.045-9.45-.02-12.385-4.522-14.632-10.044z" fill="#FFF7E3"/><path d="M71.788 101.908c1.94-1.158 12.997 1.342 10.012 6.229-2.985 4.886-8.78-3.002-10.012-6.23z" fill="#623228"/><ellipse fill="#FFF" transform="rotate(-30.821 77.077 107.169)" cx="77.077" cy="107.169" rx="1.142" ry="1.153"/><path d="M77.982 118.715c-4.675-4.865-13.716-20.018-12.408-20.798 1.307-.78 8.81 11.798 12.408 20.798z" fill="#5A5F3F"/><path d="M96.84 149.765c-2.207 1.316-.091 3.747-3.765 7.618l10.786-6.436c-4.564.709-4.815-2.498-7.021-1.182z" fill="#8C5549"/></g></g></g><ellipse fill="#5F62AA" fill-rule="nonzero" transform="rotate(147.173 139.445 68.44)" cx="139.445" cy="68.441" rx="20.359" ry="18.876"/><ellipse fill="#191D5F" fill-rule="nonzero" transform="rotate(147.173 144.983 79.318)" cx="144.983" cy="79.318" rx="6.713" ry="2.751"/><path d="M147.845 80.716c.446 1.339.353 5.023-3.025 2.109-2.884-2.487.563-2.041 3.025-2.11zm-3.934 1.363c-.073 1.995-1.844 4.533-3.657.658-1.813-3.876 2.073-1.892 3.657-.658zm5.525-6.737c2.275 1.127 5.241 3.374-1.089 3.349-6.33-.025-1.912-2.243 1.09-3.35z" fill="#191D5F" fill-rule="nonzero"/><path d="M149.496 76.957c1.5 2.2 3.145 6.16-2.282 4.397s-.74-3.666 2.282-4.397z" fill="#191D5F" fill-rule="nonzero"/><ellipse fill="#9B9EDB" fill-rule="nonzero" transform="rotate(147.173 145.124 78.737)" cx="145.124" cy="78.737" rx="3.101" ry="1.483"/><ellipse fill="#A55252" fill-rule="nonzero" transform="rotate(147.173 145.124 78.737)" cx="145.124" cy="78.737" rx="1.213" ry="1"/><path d="M144.4 76.37c.466 1.769.435 4.846-3.416 3.004-3.85-1.841.673-2.77 3.416-3.004zm2.706-1.916c.581 1.502 1.025 3.988-1.843 1.916s.034-2.141 1.843-1.916z" fill="#5F62AA" fill-rule="nonzero"/><path d="M124.351 68.047c-3.558-17.206 14.631-17.386 20.073-15.555 4.757 1.335 13.146 7.733 2.422 6.833-8.149-.02-13.145-3.754-20.786 10.523-.867.922-1.57-1.126-1.709-1.8z" fill="#A8ABE4" fill-rule="nonzero"/><g transform="translate(298.761 39.664)"><mask id="h" fill="#fff"><use xlink:href="#g"/></mask><g mask="url(#h)" fill-rule="nonzero"><g transform="translate(-65.765 -44.145)"><path fill="#D93333" transform="rotate(20.733 123.784 117.775)" d="M24.933 29.263H222.636V206.288H24.933z"/><path d="M164.148 168.134c20.918-38.515-12.714 6.033-52.802-4.227-15.264-3.907-35.11-23.713-41.015-29.42-4.983-2.876-4.564 8.735-3.66 11.831 2.998 10.282 21.89 31.316 39.432 35.771 28.816 7.32 54.314-7.087 58.045-13.955z" fill="#AA2727"/><ellipse fill="#AA2727" transform="rotate(20.733 146.02 61.73)" cx="146.021" cy="61.729" rx="11.472" ry="4.032"/><path d="M134.183 54.454c-.725-8.917-16.051-10.434-20.013-10.119-32.868-.123-43.582 27.642-41.412 43.881 1.262 9.446 47.653-27.411 71.927-18.01 35.15 11.646 52.028 56.902 45.748 14.082C178.948 57.24 180.28 66.575 177.9 66.186c-2.714-1.167-15.008-10.917-14.43-2.112.325 4.968-13.51 2.705-17.244 2.06-4.127-1.423-11.535-5.413-12.044-11.68z" fill="#F66"/><path d="M105.777 65.907c-16.864 5.994-13.148-2.339-8.75-10.006 4.778-5.7 9.998-12.57 13.65-6.399 3.652 6.17 14.299 6.712 13.854 12.832-3.316 5.172-10.654.959-18.754 3.573z" fill-opacity=".8" fill="#FFD1CA"/></g></g></g><path d="M390.774 38.733c6.765-.819 1.902-1.681-1.554-2.119-1.652-.209-3.29.475-4.267 1.823-4.86 6.723-6.843 13.22-7.394 17.139-.206 1.461.506 2.84 1.796 3.558.78.433 1.592.836 2.115 1.014a.832.832 0 0 0 .238.043.99.99 0 0 0 1.027-1.032c-.173-4.214-.22-19.425 8.04-20.426z" fill="#B5856B" fill-rule="nonzero"/><path d="M392.442 39.727c4.248-2.235.586-2.53-2.059-2.5a4.361 4.361 0 0 0-3.453 1.783c-5.087 6.871-7.14 13.559-7.703 17.56-.205 1.461.417 3.03 1.82 3.492.063.02.13.042.2.063 1.506.35 2.996-.678 3.268-2.201.923-5.174 3.338-15.782 7.927-18.197z" fill="#413535" fill-rule="nonzero"/><path d="M565.883 40.64c-11.973 4.03-19.2 18.402-21.317 25.085-8.282 7.181-21.027 17.008-5.753-1.134 15.274-18.142 17.085-28.637 16.688-31.194 7.503 1.64 14.207 5.956 10.382 7.243z" fill="#C07362" fill-rule="nonzero"/><path d="M565.957 40.995c-11.065 4.6-18.512 18.716-20.853 25.2-7.936 7.354-20.696 16.978-5.119-.706 15.67-17.789 17.783-27.991 17.07-30.704 6.664 1.073 12.436 4.741 8.902 6.21z" fill="#623228" fill-rule="nonzero"/><g transform="translate(385.57 59.807)"><mask id="j" fill="#fff"><use xlink:href="#i"/></mask><g mask="url(#j)"><g transform="translate(0 -6.157)"><path d="M160.059 43.477c18.945-52.31-24.632-37.357-39.502-27.557-30.01 19.777-5.938 17.473-64.863 36.168-76.116 24.15-59.245 96.287-36.464 112.18l27.384 19.103c61.556 42.942 90.19-32.19 95.767-55.678 2.687-14.697-1.383-31.587 17.678-84.216z" fill="#E9FB7D" fill-rule="nonzero"/><path d="M183.962 57.032c19.452-55.801-27.825-40.768-43.845-30.587-32.33 20.547-6.07 18.65-70.034 37.336-82.626 24.14-62.446 102.126-37.162 119.765l30.396 21.204c68.322 47.663 97.816-32.448 103.347-57.574 2.584-15.742-2.272-34.003 17.298-90.144z" fill="#CADD55" fill-rule="nonzero"/><ellipse fill="#C07362" fill-rule="nonzero" transform="rotate(34.9 141.87 8.093)" cx="141.87" cy="8.093" rx="4.728" ry="4.727"/><ellipse fill="#C07362" fill-rule="nonzero" transform="rotate(34.9 153.93 11.463)" cx="153.93" cy="11.463" rx="3.546" ry="3.546"/><ellipse fill="#C07362" fill-rule="nonzero" transform="rotate(34.9 148.847 11.519)" cx="148.847" cy="11.519" rx="3.546" ry="3.546"/><ellipse fill="#C07362" fill-rule="nonzero" transform="rotate(34.9 147.674 4.937)" cx="147.674" cy="4.937" rx="3.546" ry="3.546"/><ellipse fill="#C07362" fill-rule="nonzero" transform="rotate(34.9 157.498 17.194)" cx="157.498" cy="17.194" rx="2.659" ry="2.659"/><ellipse fill="#C07362" fill-rule="nonzero" transform="rotate(34.9 158.839 8.042)" cx="158.839" cy="8.042" rx="2.659" ry="2.659"/><ellipse fill="#C07362" fill-rule="nonzero" transform="rotate(34.9 164.08 16.022)" cx="164.08" cy="16.022" rx="2.659" ry="2.659"/><ellipse fill="#C07362" fill-rule="nonzero" transform="rotate(34.9 153.462 6.453)" cx="153.462" cy="6.453" rx="3.841" ry="3.841"/><ellipse fill="#C07362" fill-rule="nonzero" transform="rotate(34.9 160.54 12.832)" cx="160.541" cy="12.832" rx="3.25" ry="3.25"/><ellipse fill="#8C5549" fill-rule="nonzero" transform="rotate(34.9 154.219 24.993)" cx="154.219" cy="24.993" rx="2.659" ry="2.659"/><ellipse fill="#C07362" fill-rule="nonzero" transform="rotate(34.9 149.755 18.997)" cx="149.755" cy="18.997" rx="5.023" ry="5.023"/><ellipse fill="#C07362" fill-rule="nonzero" transform="rotate(34.9 161.257 21.617)" cx="161.257" cy="21.617" rx="4.728" ry="4.727"/><ellipse fill="#8C5549" fill-rule="nonzero" transform="rotate(34.9 161.974 30.403)" cx="161.974" cy="30.403" rx="2.659" ry="2.659"/><ellipse fill="#C07362" fill-rule="nonzero" transform="rotate(34.9 140.383 16.422)" cx="140.383" cy="16.422" rx="2.955" ry="2.955"/><ellipse fill="#C07362" fill-rule="nonzero" transform="rotate(34.9 139.307 24.677)" cx="139.307" cy="24.677" rx="2.068" ry="2.068"/><ellipse fill="#8C5549" fill-rule="nonzero" transform="rotate(34.9 157.522 31.62)" cx="157.522" cy="31.62" rx="2.068" ry="2.068"/><ellipse fill="#8C5549" fill-rule="nonzero" transform="rotate(34.9 142.59 78.845)" cx="142.591" cy="78.845" rx="2.068" ry="2.068"/><ellipse fill="#8C5549" fill-rule="nonzero" transform="rotate(34.9 130.133 39.893)" cx="130.133" cy="39.893" rx="2.068" ry="2.068"/><ellipse fill="#8C5549" fill-rule="nonzero" transform="rotate(34.9 142.712 34.258)" cx="142.712" cy="34.258" rx="2.068" ry="2.068"/><ellipse fill="#8C5549" fill-rule="nonzero" transform="rotate(34.9 136.926 137.577)" cx="136.926" cy="137.577" rx="2.068" ry="2.068"/><ellipse fill="#8C5549" fill-rule="nonzero" transform="rotate(34.9 138.288 111.868)" cx="138.288" cy="111.868" rx="2.068" ry="2.068"/><ellipse fill="#8C5549" fill-rule="nonzero" transform="rotate(34.9 107.914 129.586)" cx="107.914" cy="129.586" rx="2.068" ry="2.068"/><ellipse fill="#8C5549" fill-rule="nonzero" transform="rotate(34.9 110.179 123.241)" cx="110.179" cy="123.241" rx="2.068" ry="2.068"/><ellipse fill="#8C5549" fill-rule="nonzero" transform="rotate(34.9 106.729 115.791)" cx="106.729" cy="115.791" rx="2.068" ry="2.068"/><ellipse fill="#C07362" fill-rule="nonzero" transform="rotate(34.9 101.866 43.23)" cx="101.866" cy="43.229" rx="2.068" ry="2.068"/><ellipse fill="#C07362" fill-rule="nonzero" transform="rotate(34.9 70.025 52.72)" cx="70.025" cy="52.719" rx="1.477" ry="1.477"/><ellipse fill="#8C5549" fill-rule="nonzero" transform="rotate(34.9 69.983 85.833)" cx="69.983" cy="85.833" rx="2.068" ry="2.068"/><ellipse fill="#C07362" fill-rule="nonzero" transform="rotate(34.9 24.47 82.903)" cx="24.47" cy="82.903" rx="1.477" ry="1.477"/><ellipse fill="#8C5549" fill-rule="nonzero" transform="rotate(34.9 49.799 117.865)" cx="49.799" cy="117.865" rx="2.068" ry="2.068"/><ellipse fill="#C07362" fill-rule="nonzero" transform="rotate(34.9 6.558 127.688)" cx="6.558" cy="127.688" rx="1.773" ry="1.773"/><ellipse fill="#8C5549" fill-rule="nonzero" transform="rotate(34.9 34.968 137.06)" cx="34.968" cy="137.059" rx="2.068" ry="2.068"/><ellipse fill="#C07362" fill-rule="nonzero" transform="rotate(34.9 12.4 103.303)" cx="12.4" cy="103.303" rx="2.068" ry="2.068"/><ellipse fill="#C07362" fill-rule="nonzero" transform="rotate(34.9 8.499 86.171)" cx="8.499" cy="86.171" rx="3.25" ry="3.25"/><ellipse fill="#8C5549" fill-rule="nonzero" transform="rotate(34.9 46.754 91.243)" cx="46.754" cy="91.243" rx="1.477" ry="1.477"/><ellipse fill="#C07362" fill-rule="nonzero" transform="rotate(34.9 54.02 65.332)" cx="54.021" cy="65.332" rx="2.068" ry="2.068"/><ellipse fill="#8C5549" fill-rule="nonzero" transform="rotate(34.9 113.366 88.718)" cx="113.366" cy="88.718" rx="1.477" ry="1.477"/><ellipse fill="#8C5549" fill-rule="nonzero" transform="rotate(34.9 90.486 100.857)" cx="90.486" cy="100.857" rx="2.068" ry="2.068"/><ellipse fill="#8C5549" fill-rule="nonzero" transform="rotate(34.9 92.506 121.72)" cx="92.506" cy="121.719" rx="2.068" ry="2.068"/><ellipse fill="#8C5549" fill-rule="nonzero" transform="rotate(34.9 69.85 123.207)" cx="69.851" cy="123.207" rx="2.068" ry="2.068"/><ellipse fill="#8C5549" fill-rule="nonzero" transform="rotate(34.9 60.249 143.168)" cx="60.249" cy="143.168" rx="2.068" ry="2.068"/><ellipse fill="#8C5549" fill-rule="nonzero" transform="rotate(34.9 135.829 88.538)" cx="135.829" cy="88.538" rx="2.068" ry="2.068"/><ellipse fill="#8C5549" fill-rule="nonzero" transform="rotate(34.9 140.955 55.368)" cx="140.955" cy="55.368" rx="2.068" ry="2.068"/><ellipse fill="#8C5549" fill-rule="nonzero" transform="rotate(34.9 130.45 55.965)" cx="130.45" cy="55.965" rx="2.068" ry="2.068"/><ellipse fill="#8C5549" fill-rule="nonzero" transform="rotate(34.9 136.808 65.444)" cx="136.808" cy="65.444" rx="2.068" ry="2.068"/><ellipse fill="#8C5549" fill-rule="nonzero" transform="rotate(34.9 112.285 108.86)" cx="112.285" cy="108.859" rx="2.068" ry="2.068"/><ellipse fill="#8C5549" fill-rule="nonzero" transform="rotate(34.9 108.94 135.346)" cx="108.94" cy="135.346" rx="2.068" ry="2.068"/><ellipse fill="#8C5549" fill-rule="nonzero" transform="rotate(34.9 118.454 150.63)" cx="118.454" cy="150.629" rx="2.068" ry="2.068"/><ellipse fill="#8C5549" fill-rule="nonzero" transform="rotate(34.9 135.822 143.292)" cx="135.822" cy="143.292" rx="2.068" ry="2.068"/><ellipse fill="#8C5549" fill-rule="nonzero" transform="rotate(34.9 144.227 102.322)" cx="144.227" cy="102.322" rx="2.068" ry="2.068"/><ellipse fill="#8C5549" fill-rule="nonzero" transform="rotate(34.9 93.544 134.692)" cx="93.544" cy="134.692" rx="2.068" ry="2.068"/><ellipse fill="#8C5549" fill-rule="nonzero" transform="rotate(34.9 41.879 159.172)" cx="41.879" cy="159.172" rx="2.068" ry="2.068"/><ellipse fill="#8C5549" fill-rule="nonzero" transform="rotate(34.9 22.808 161.72)" cx="22.808" cy="161.72" rx="2.068" ry="2.068"/><ellipse fill="#8C5549" fill-rule="nonzero" transform="rotate(34.9 17.554 146.527)" cx="17.554" cy="146.527" rx="2.068" ry="2.068"/><ellipse fill="#8C5549" fill-rule="nonzero" transform="rotate(34.9 29.818 155.803)" cx="29.818" cy="155.803" rx="2.068" ry="2.068"/><ellipse fill="#8C5549" fill-rule="nonzero" transform="rotate(34.9 30.62 172.213)" cx="30.62" cy="172.213" rx="2.068" ry="2.068"/><ellipse fill="#8C5549" fill-rule="nonzero" transform="rotate(34.9 39.569 167.648)" cx="39.569" cy="167.648" rx="2.068" ry="2.068"/><ellipse fill="#8C5549" fill-rule="nonzero" transform="rotate(34.9 152.483 29.546)" cx="152.483" cy="29.546" rx="2.068" ry="2.068"/><ellipse fill="#8C5549" fill-rule="nonzero" transform="rotate(34.9 155.74 38.304)" cx="155.741" cy="38.304" rx="2.068" ry="2.068"/><ellipse fill="#C07362" fill-rule="nonzero" transform="rotate(34.9 135.023 10.16)" cx="135.023" cy="10.161" rx="2.068" ry="2.068"/><ellipse fill="#C07362" fill-rule="nonzero" transform="rotate(34.9 133.874 18.005)" cx="133.874" cy="18.005" rx="1.477" ry="1.477"/><ellipse fill="#8C5549" fill-rule="nonzero" transform="rotate(34.9 80.086 135.391)" cx="80.086" cy="135.391" rx="1.477" ry="1.477"/><ellipse fill="#8C5549" fill-rule="nonzero" transform="rotate(34.9 116.276 121.731)" cx="116.276" cy="121.731" rx="1.477" ry="1.477"/><ellipse fill="#8C5549" fill-rule="nonzero" transform="rotate(34.9 105.873 125.281)" cx="105.873" cy="125.281" rx="1.477" ry="1.477"/><ellipse fill="#8C5549" fill-rule="nonzero" transform="rotate(34.9 133.273 124.221)" cx="133.273" cy="124.221" rx="1.477" ry="1.477"/><ellipse fill="#8C5549" fill-rule="nonzero" transform="rotate(34.9 136.089 99.527)" cx="136.089" cy="99.527" rx="1.477" ry="1.477"/><ellipse fill="#8C5549" fill-rule="nonzero" transform="rotate(34.9 124.77 76.501)" cx="124.771" cy="76.501" rx="1.477" ry="1.477"/><ellipse fill="#8C5549" fill-rule="nonzero" transform="rotate(34.9 93.508 113.052)" cx="93.508" cy="113.052" rx="1.477" ry="1.477"/><ellipse fill="#8C5549" fill-rule="nonzero" transform="rotate(34.9 143.639 68.047)" cx="143.639" cy="68.047" rx="1.477" ry="1.477"/><ellipse fill="#8C5549" fill-rule="nonzero" transform="rotate(34.9 154.299 44.503)" cx="154.299" cy="44.503" rx="1.477" ry="1.477"/><ellipse fill="#C07362" fill-rule="nonzero" transform="rotate(34.9 143.274 23.122)" cx="143.274" cy="23.122" rx="1.477" ry="1.477"/><ellipse fill="#8C5549" fill-rule="nonzero" transform="rotate(34.9 159.664 38.878)" cx="159.664" cy="38.878" rx="1.477" ry="1.477"/><ellipse fill="#8C5549" fill-rule="nonzero" transform="rotate(34.9 98.237 192.004)" cx="98.237" cy="192.004" rx="1.477" ry="1.477"/><ellipse fill="#8C5549" fill-rule="nonzero" transform="rotate(34.9 89.907 190.517)" cx="89.907" cy="190.517" rx="1.477" ry="1.477"/><ellipse fill="#8C5549" fill-rule="nonzero" transform="rotate(34.9 83.9 187.766)" cx="83.9" cy="187.766" rx="1.477" ry="1.477"/><ellipse fill="#8C5549" fill-rule="nonzero" transform="rotate(34.9 79.887 191.452)" cx="79.887" cy="191.452" rx="1.477" ry="1.477"/><ellipse fill="#8C5549" fill-rule="nonzero" transform="rotate(34.9 73.688 190.01)" cx="73.688" cy="190.009" rx="1.477" ry="1.477"/><ellipse fill="#8C5549" fill-rule="nonzero" transform="rotate(34.9 94.887 156.524)" cx="94.887" cy="156.524" rx="1.477" ry="1.477"/><ellipse fill="#8C5549" fill-rule="nonzero" transform="rotate(34.9 86.422 161.427)" cx="86.422" cy="161.427" rx="1.477" ry="1.477"/><ellipse fill="#8C5549" fill-rule="nonzero" transform="rotate(34.9 107.26 144.982)" cx="107.261" cy="144.982" rx="1.477" ry="1.477"/><ellipse fill="#8C5549" fill-rule="nonzero" transform="rotate(34.9 102.663 145.377)" cx="102.663" cy="145.377" rx="1.477" ry="1.477"/><ellipse fill="#8C5549" fill-rule="nonzero" transform="rotate(34.9 124.809 129.124)" cx="124.809" cy="129.124" rx="2.068" ry="2.068"/><ellipse fill="#8C5549" fill-rule="nonzero" transform="rotate(34.9 127.318 138.44)" cx="127.318" cy="138.44" rx="4.728" ry="4.727"/><ellipse fill="#8C5549" fill-rule="nonzero" transform="rotate(34.9 115.168 139.33)" cx="115.168" cy="139.33" rx="4.728" ry="4.727"/><ellipse fill="#8C5549" fill-rule="nonzero" transform="rotate(34.9 119.53 142.373)" cx="119.53" cy="142.373" rx="4.728" ry="4.727"/><ellipse fill="#8C5549" fill-rule="nonzero" transform="rotate(34.9 116.362 129.355)" cx="116.362" cy="129.355" rx="4.728" ry="4.727"/><ellipse fill="#8C5549" fill-rule="nonzero" transform="rotate(34.9 127.87 151.074)" cx="127.871" cy="151.074" rx="7.683" ry="7.682"/><ellipse fill="#8C5549" fill-rule="nonzero" transform="rotate(34.9 111.652 150.567)" cx="111.652" cy="150.567" rx="4.728" ry="4.727"/><ellipse fill="#8C5549" fill-rule="nonzero" transform="rotate(34.9 76.667 161.466)" cx="76.667" cy="161.466" rx="4.728" ry="4.727"/><ellipse fill="#8C5549" fill-rule="nonzero" transform="rotate(34.9 69.522 173.774)" cx="69.522" cy="173.774" rx="4.728" ry="4.727"/><ellipse fill="#8C5549" fill-rule="nonzero" transform="rotate(34.9 56.39 166.775)" cx="56.391" cy="166.775" rx="4.728" ry="4.727"/><ellipse fill="#8C5549" fill-rule="nonzero" transform="rotate(34.9 108.247 140.987)" cx="108.247" cy="140.987" rx="2.364" ry="2.364"/><ellipse fill="#8C5549" fill-rule="nonzero" transform="rotate(34.9 118.348 159.561)" cx="118.348" cy="159.561" rx="4.728" ry="4.727"/><ellipse fill="#8C5549" fill-rule="nonzero" transform="rotate(34.9 103.244 160.553)" cx="103.244" cy="160.553" rx="4.728" ry="4.727"/><ellipse fill="#8C5549" fill-rule="nonzero" transform="rotate(34.9 113.733 164.627)" cx="113.733" cy="164.627" rx="2.659" ry="2.659"/><ellipse fill="#8C5549" fill-rule="nonzero" transform="rotate(34.9 110.988 158.75)" cx="110.988" cy="158.75" rx="4.728" ry="4.727"/><ellipse fill="#8C5549" fill-rule="nonzero" transform="rotate(34.9 102.147 185.366)" cx="102.147" cy="185.366" rx="7.387" ry="7.387"/><ellipse fill="#8C5549" fill-rule="nonzero" transform="rotate(34.9 85.484 194.275)" cx="85.484" cy="194.275" rx="4.728" ry="4.727"/><ellipse fill="#8C5549" fill-rule="nonzero" transform="rotate(34.9 96.327 193.193)" cx="96.327" cy="193.193" rx="4.728" ry="4.727"/><ellipse fill="#8C5549" fill-rule="nonzero" transform="rotate(34.9 85.855 184.447)" cx="85.855" cy="184.447" rx="4.728" ry="4.727"/><ellipse fill="#8C5549" fill-rule="nonzero" transform="rotate(34.9 104.776 150.094)" cx="104.776" cy="150.094" rx="2.955" ry="2.955"/><ellipse fill="#8C5549" fill-rule="nonzero" transform="rotate(34.9 125.899 159.065)" cx="125.899" cy="159.065" rx="4.728" ry="4.727"/><ellipse fill="#8C5549" fill-rule="nonzero" transform="rotate(34.9 104.136 172.703)" cx="104.136" cy="172.703" rx="4.728" ry="4.727"/><ellipse fill="#8C5549" fill-rule="nonzero" transform="rotate(34.9 112.286 182.712)" cx="112.286" cy="182.712" rx="4.728" ry="4.727"/><ellipse fill="#8C5549" fill-rule="nonzero" transform="rotate(34.9 112.51 172.06)" cx="112.51" cy="172.06" rx="2.955" ry="2.955"/><ellipse fill="#8C5549" fill-rule="nonzero" transform="rotate(34.9 92.295 170.567)" cx="92.295" cy="170.567" rx="10.342" ry="10.341"/><ellipse fill="#8C5549" fill-rule="nonzero" transform="rotate(34.9 42.325 180.74)" cx="42.325" cy="180.739" rx="4.728" ry="4.727"/><ellipse fill="#8C5549" fill-rule="nonzero" transform="rotate(34.9 51.535 187.164)" cx="51.535" cy="187.164" rx="4.728" ry="4.727"/><ellipse fill="#8C5549" fill-rule="nonzero" transform="rotate(34.9 49.409 175.233)" cx="49.409" cy="175.233" rx="2.659" ry="2.659"/><ellipse fill="#8C5549" fill-rule="nonzero" transform="rotate(34.9 63.448 189.711)" cx="63.448" cy="189.711" rx="4.728" ry="4.727"/><ellipse fill="#8C5549" fill-rule="nonzero" transform="rotate(34.9 63.245 183.805)" cx="63.245" cy="183.805" rx="2.364" ry="2.364"/><ellipse fill="#8C5549" fill-rule="nonzero" transform="rotate(34.9 74.043 184.853)" cx="74.043" cy="184.853" rx="4.728" ry="4.727"/><ellipse fill="#8C5549" fill-rule="nonzero" transform="scale(1 -1) rotate(-34.9 -413.312 0)" cx="68.517" cy="151.458" rx="4.728" ry="4.727"/><ellipse fill="#8C5549" fill-rule="nonzero" transform="rotate(34.9 78.745 144.543)" cx="78.745" cy="144.543" rx="5.614" ry="5.614"/><ellipse fill="#8C5549" fill-rule="nonzero" transform="rotate(34.9 68.212 142.6)" cx="68.212" cy="142.599" rx="2.955" ry="2.955"/><ellipse fill="#8C5549" fill-rule="nonzero" transform="rotate(34.9 74.253 136.005)" cx="74.253" cy="136.005" rx="2.364" ry="2.364"/><ellipse fill="#8C5549" fill-rule="nonzero" transform="rotate(34.9 81.254 153.858)" cx="81.254" cy="153.858" rx="2.364" ry="2.364"/><ellipse fill="#8C5549" fill-rule="nonzero" transform="rotate(34.9 62.545 170.347)" cx="62.545" cy="170.347" rx="2.364" ry="2.364"/><ellipse fill="#8C5549" fill-rule="nonzero" transform="rotate(34.9 67.572 165.208)" cx="67.572" cy="165.208" rx="2.364" ry="2.364"/><ellipse fill="#8C5549" fill-rule="nonzero" transform="rotate(34.9 52.457 158.986)" cx="52.457" cy="158.986" rx="2.364" ry="2.364"/><ellipse fill="#8C5549" fill-rule="nonzero" transform="rotate(34.9 79.26 178.406)" cx="79.261" cy="178.406" rx="2.364" ry="2.364"/><ellipse fill="#8C5549" fill-rule="nonzero" transform="rotate(34.9 57.767 179.263)" cx="57.767" cy="179.263" rx="2.364" ry="2.364"/><ellipse fill="#8C5549" fill-rule="nonzero" transform="rotate(34.9 94.92 147.18)" cx="94.92" cy="147.18" rx="3.25" ry="3.25"/><ellipse fill="#8C5549" fill-rule="nonzero" transform="rotate(34.9 87.103 148.572)" cx="87.103" cy="148.572" rx="2.364" ry="2.364"/><ellipse fill="#8C5549" fill-rule="nonzero" transform="rotate(34.9 123.928 167.056)" cx="123.928" cy="167.056" rx="4.728" ry="4.727"/><ellipse fill="#8C5549" fill-rule="nonzero" transform="rotate(34.9 118.4 176.53)" cx="118.4" cy="176.529" rx="3.25" ry="3.25"/><g transform="translate(143.325 16.888)"><mask id="l" fill="#fff"><use xlink:href="#k"/></mask><g mask="url(#l)" fill="#8C5549" fill-rule="nonzero"><g transform="translate(1.406 -4.907)"><ellipse transform="rotate(34.9 12.767 5.213)" cx="12.767" cy="5.213" rx="2.659" ry="2.659"/><path d="M9.144 9.89a5.023 5.023 0 1 1-8.24-5.748 5.023 5.023 0 0 1 8.24 5.748z"/><ellipse transform="rotate(34.9 16.526 9.636)" cx="16.526" cy="9.636" rx="4.728" ry="4.727"/><ellipse transform="rotate(34.9 18.865 3.702)" cx="18.865" cy="3.702" rx="2.659" ry="2.659"/></g></g></g></g></g></g><ellipse fill="#5F62AA" fill-rule="nonzero" transform="rotate(39.137 268.294 172.4)" cx="268.294" cy="172.401" rx="18.237" ry="16.909"/><ellipse fill="#191D5F" fill-rule="nonzero" transform="rotate(39.137 276.023 164.667)" cx="276.023" cy="164.667" rx="6.013" ry="2.464"/><path d="M276.42 161.842c1.016-.751 4.18-1.693 2.635 1.992-1.319 3.146-1.894.086-2.635-1.992z" fill="#191D5F" fill-rule="nonzero"/><path d="M278.153 169.598c-.227-1.342 1.586-4.571 2.191-2.44.617 2.175-1.034 2.374-2.19 2.44z" fill="#5F62AA" fill-rule="nonzero"/><path d="M271.402 161.977c.328-2.25 1.42-5.4 3.154-.001s-1.38 2.25-3.154 0z" fill="#191D5F" fill-rule="nonzero"/><path d="M272.761 161.478c1.457-1.888 4.374-4.386 4.377.725.004 5.11-2.917 1.647-4.377-.725z" fill="#191D5F" fill-rule="nonzero"/><ellipse fill="#9B9EDB" fill-rule="nonzero" transform="rotate(39.137 275.488 164.708)" cx="275.488" cy="164.708" rx="2.778" ry="1.329"/><ellipse fill="#A55252" fill-rule="nonzero" transform="rotate(39.137 275.488 164.708)" cx="275.488" cy="164.708" rx="1.087" ry="1"/><path d="M273.394 166.77c1.051-1.274 3.383-2.873 4.306.93.922 3.802-2.486.965-4.306-.93zm-2.103-2.562c1.118-.911 3.112-1.98 2.143 1.039-.969 3.017-1.832.564-2.143-1.04z" fill="#5F62AA" fill-rule="nonzero"/><path d="M253.27 170.378c-.127-13.93 9.63-14.896 14.252-15.028 4.002-.325 1.246 2.105 1.275 3.218-.296 3.807 7.712 11.57-.598 8.389-16.196-6.201-14.774 20.833-14.93 3.42z" fill="#A8ABE4" fill-rule="nonzero"/><g transform="translate(153.314 118.482)"><mask id="n" fill="#fff"><use xlink:href="#m"/></mask><g mask="url(#n)" fill-rule="nonzero"><g transform="translate(-10.699)"><path d="M33.872 96.425C2.81 75.727 7.736 49.12 21.129 40.529c9.167-7.054 5.509-6.587 13.277-15.878 6.035-7.217 10.386-6.363 18.051-18.266 2.671-3 10.951-7.647 20.922-6.065 13.313 2.112 28.867 12.444 37.927 35.742 8.703 22.378 5.802 36.68-2.697 48.564-9.075 10.072-15.368 16.927-26.57 22.592-10.947 5.536-33.3-.886-48.167-10.793z" fill="#6C0A28"/><path d="M95.016 30.725c1.918 4.398-.097 9.52-4.499 11.439-4.403 1.92-8.117 1.742-10.035-2.656-1.917-4.398-4.682-14.162-.279-16.082 4.403-1.92 12.895 2.9 14.813 7.299z" fill="#FFB8C1"/><path d="M94.709 22.298C61.822 96.806 20.57 77.352 4.273 57.758L0 107.62l83.542 25.94 39.625-69.863c-8.608-16.934-39.571-101.981-28.458-41.4z" fill="#921B3E"/><path d="M20.377 49.925c-3.607 1.796-1.329-3.282 1.679-5.305 1.401-.306 2.204.473 4.574-.775C31.6 41.227 40.487 36.18 47.1 28.82c6.02-6.7 9.134-13.911 9.243-15.005.227-2.294-1.926-1.6-3.001-2.656-.893-2.05 3.456-5.165 6.852-5.123 4.366.057-.643 8.406-3.277 13.32-5.756 10.743-26.701 25.668-36.54 30.568z" fill="#FFB8C1"/><path d="M33.533 51.925c-4.281 4.924.779 20.098-6.516 13.628-5.207-4.617-6.93-9.987-5.491-12.592 2.223-4.027 16.202-10.532 24.258-17.765 5.215-4.683 8.739-9.242 11.552-13.32 6.939-10.057 4.352-2.245-.127 6.435C52.73 36.99 37.048 47.88 33.533 51.925z" fill="#921B3E"/><path d="M125.172 35.308c6.001 13.762.637 82.88-55.386 82.85-4.982-7.916 67.485-36.152 15.148-60.72-12.228-6.284 3.715-32.192 10.915-35.331 6.878-1.776 23.323-.561 29.323 13.2z" fill="#6C0A28"/><ellipse fill="#6C0A28" transform="rotate(-23.559 58.048 113.525)" cx="58.048" cy="113.525" rx="16.643" ry="16.625"/><path d="M42.381 19.535c-5.763 1.979-13.977 11.44-11.932 12.938 4.57 3.345 20.061-14.616 11.932-12.938z" fill="#921B3E"/></g></g></g><path d="M157.476 35.572c4.268-3.547-.138-4.526-4.555-4.128-.95 1.331-.189 3.988-2.219 7.546-29.148 51.074 6.778 94.868 30.168 109.897.046.412 5.637.293 4.762-4.522-56.458-31.748-46.68-83.922-32.329-103.916.594-.827 3.567-4.163 4.173-4.877z" fill="#79A65E" fill-rule="nonzero"/><g transform="translate(232.087 63.88)"><mask id="p" fill="#fff"><use xlink:href="#o"/></mask><g mask="url(#p)" fill-rule="nonzero"><g transform="translate(-14.784 -2.653)"><path d="M15.513 21.872C19.188 2.895 32.883-.073 39.665 4.607c5.203 2.967 4.249 1.313 10.24 3.166 4.655 1.44 5.117 3.689 12.336 4.97 1.967.676 5.843 3.702 7.082 8.78 1.653 6.783-.172 16.279-9.49 25.266-8.948 8.633-16.361 10.108-23.736 8.425-6.627-2.321-11.16-3.956-16.106-8.174-4.834-4.122-6.237-16.084-4.478-25.168z" fill="#6C0A28"/><path d="M59.126 37.94a4.503 4.503 0 0 1-6.365.139c-1.797-1.72-2.455-3.53-.737-5.324 1.717-1.796 5.828-5.07 7.626-3.35 1.798 1.719 1.193 6.74-.524 8.536z" fill="#FFB8C1"/><path d="M63.09 36.109C20.92 35.299 21.964 11.704 28.064 0L3.39 7.931l4.316 45.095 41.298 4.956c6.368-7.498 40.8-39.298 14.085-21.873z" fill="#921B3E"/><path d="M35.027 6.126c-1.58-1.364 1.302-1.291 2.87-.26.426.61.215 1.149 1.285 2.031 2.244 1.85 6.432 5.087 11.27 6.774 4.404 1.536 8.472 1.58 9.016 1.414 1.142-.35.38-1.24.669-1.964.8-.837 3.158.617 3.817 2.248.847 2.097-4.143 1.374-7.018 1.099-6.282-.601-17.601-7.622-21.91-11.342z" fill="#FFB8C1"/><path d="M36.703 12.81c-3.21-1.06-9.445 4.392-7.814-.387 1.165-3.41 3.385-5.307 4.917-5.14 2.368.256 8.272 5.632 13.338 8.034 3.28 1.555 6.163 2.326 8.673 2.855 6.192 1.303 1.943 1.629-3.1 1.226-5.041-.404-13.38-5.717-16.014-6.588z" fill="#921B3E"/><path d="M62.968 53.262c-5.374 5.619-39.464 16.88-50.654-9.887 2.785-3.963 30.766 25.006 32.035-4.908.556-7.098 16.12-4.664 19.06-1.852 2.224 2.93 4.932 11.029-.441 16.647z" fill="#6C0A28"/><ellipse fill="#6C0A28" transform="rotate(43.723 12.18 36.84)" cx="12.18" cy="36.841" rx="8.619" ry="8.61"/><path d="M53.944 10.56c-2.098-2.358-8.26-4.39-8.566-3.113-.684 2.852 10.994 6.66 8.566 3.112z" fill="#921B3E"/></g></g></g><path d="M314.68 38.151c2.547 1.33 2.134-.97 1.06-3.001-.826-.188-1.943.707-4.048.449-30.227-3.71-43.962 22.21-46.463 36.39-.188.104.987 2.75 3.112 1.37 3.875-33.32 30.753-39.082 43.174-36.226.514.118 2.702.872 3.164 1.018z" fill="#79A65E" fill-rule="nonzero"/><g transform="translate(328.197 163.94)"><mask id="r" fill="#fff"><use xlink:href="#q"/></mask><g mask="url(#r)" fill-rule="nonzero"><path d="M12.752 14.555c-14.793 22.22-16.553 30.92-7.237 47.713 3.299 5.947 13.382 8.95 19.929 14.079 6.547 5.129 6.655 6.916 13.24 10.836 11.273 6.71 33.506 5.418 47.204-21.148C93.915 50.467 96.88 30.653 74.667 17.43 54.305 5.309 58.083 3.848 49.357.394 30.75-2.31 17.687 9.613 12.752 14.554z" fill="#930D34"/><path d="M84.553 3.983c21.746 71.869-29.84 85.799-58.35 83.78l5.513 6.897 84.997 4.936C96.933 37.78 62.808-67.886 84.553 3.983z" fill="#B52E55"/><path d="M39.742 12.456c7.386-2.705 7.12-1.145 7.777 2.515 1.126 14.737 4.572 16.52 8.39 18.612 3.906 2.14 9.256 3.322 14.286 3.934 5.03.612 7.06 1.164 8.669 6.49-1.205 2.984-2.411 3.477-5.444 2.335-2.242-3.721-7.386-8.335-12.155-7.773C50.672 39.818 47.57 27.955 43.822 23.35c-3.748-4.605-11.466-8.19-4.08-10.895z" fill="#FFB8C1"/><path d="M25.742 6.92C21.53 7.982 10.247 14.687.806 18.343L-9.366 49.127 6.639 92.679l63.894 30.52c13.01-17.63 20.676-64.425 17.99-57.626-2.685 6.799-17.273 23.487-26.511 16.25C29 55.234 27.78 32.804 30.28 20.477 32.539 9.339 37.883 3.858 25.742 6.92z" fill="#B9234F"/><path d="M49.9 75.242c-1.288-1.181-6.582-9.213-1.28-5.702 3.29 1.995 10.278-1.875 12.64-4.45 5.228-5.7 8.025-10.32 10.375-8.164 2.35 2.156.017 8.524-5.211 14.223-2.282 2.489-8.201 5.549-5.584 9.722-3.667.94-9.616-4.414-10.94-5.63z" fill="#B9234F"/><path d="M83.223 29.255c.647 2.92-1.414 6.859-2.861 7.15 5.73 3.06 3.664 9.59 7.538 5.453 3.197-3.416-5.486-16.254-4.677-12.603zm-17.825-1.161c.905-.78 3.318-2.101 2.833-4.254-11.987-10.392-16.94-1.15-11.447 4.42-.168-1.637.65-2.412 1.34-2.493 5.008-3.048 5.053 4.242 7.274 2.327z" fill="#F5777E"/></g></g><ellipse fill="#6C0A28" fill-rule="nonzero" transform="rotate(104.693 388.533 190.992)" cx="388.533" cy="190.992" rx="3.179" ry="5.467"/><path d="M327.777 99.46c-1.21-.55-.733-6.217 1.922-7.463.563.235 3.466.636 5.19 2.423 1.145 1.189 2.286 2.348 3.888 3.278 53.677 23.559 61.33 72.878 52.49 94.119.163.302-3.65 3.382-5.09-1.13 21.12-49.686-29.768-84.095-49.662-90.388-1.14-.36-3.235.463-4.145.489-1.942.054-4.002-1.206-4.593-1.327z" fill="#66C47A" fill-rule="nonzero"/><ellipse fill="#161851" fill-rule="nonzero" transform="rotate(10.383 335.04 249.398)" cx="335.039" cy="249.398" rx="25.974" ry="26.029"/><ellipse fill="#DA8763" fill-rule="nonzero" transform="scale(-1 1) rotate(-20.055 0 2156.267)" cx="340.13" cy="232.674" rx="8.564" ry="3.793"/><path d="M343.393 229.863c.225-1.924-.823-6.777-4.355-1.784-3.016 4.262 1.226 2.518 4.355 1.784z" fill="#DA8763" fill-rule="nonzero"/><path d="M332.446 233.932c1.843-.797 4.614-5.766 1.514-4.813-3.16.97-2.247 3.266-1.514 4.813z" fill="#161851" fill-rule="nonzero"/><path d="M346.758 236.454c2.59-2.254 5.77-6.224-2.22-4.074-7.993 2.15-1.85 3.612 2.22 4.074z" fill="#DA8763" fill-rule="nonzero"/><path d="M346.426 234.293c1.341-3.418 2.42-9.217-3.992-5.064-6.412 4.152-.01 5.106 3.992 5.064z" fill="#DA8763" fill-rule="nonzero"/><ellipse fill="#A55252" fill-rule="nonzero" transform="scale(-1 1) rotate(-20.055 0 2154.413)" cx="339.82" cy="232.573" rx="3.776" ry="2.267"/><path d="M339.343 237.78c.858-2.394 1.221-6.707-4.197-4.806-5.418 1.9.541 3.996 4.197 4.806zm4.696.63c.354-2.184.288-5.628-2.812-1.922-3.1 3.706.583 2.826 2.812 1.923z" fill="#161851" fill-rule="nonzero"/><path d="M311.053 252.324c-5.049-12.502 11.211-25.493 17.661-27.122 5.53-1.73-.53 4.497-.207 6.166.555 5.829 12.692 10.537 2.55 11.027-24.75 1.195-10.94 32.369-20.004 9.929z" fill="#585CAB" fill-rule="nonzero"/><ellipse fill="#161851" fill-rule="nonzero" transform="rotate(-20.072 500.684 240.354)" cx="500.684" cy="240.354" rx="18.639" ry="18.678"/><ellipse fill="#DA8763" fill-rule="nonzero" transform="scale(-1 1) rotate(10.401 0 -5240.895)" cx="497.75" cy="228.157" rx="6.145" ry="2.722"/><path d="M498.746 225.23c-.56-1.271-2.974-3.891-3.343.482-.315 3.733 1.675 1.11 3.343-.481z" fill="#DA8763" fill-rule="nonzero"/><path d="M493.455 231.73c.85-1.164.756-5.245-.815-3.528-1.6 1.75-.2 2.837.815 3.528z" fill="#161851" fill-rule="nonzero"/><path d="M503.225 228.085c.782-2.336 1.305-5.95-2.856-1.713-4.16 4.237.17 2.907 2.856 1.713z" fill="#DA8763" fill-rule="nonzero"/><path d="M502.233 226.869c-.414-2.603-1.856-6.582-4.31-1.681-2.457 4.9 1.85 3.162 4.31 1.68z" fill="#DA8763" fill-rule="nonzero"/><ellipse fill="#A55252" fill-rule="nonzero" transform="scale(-1 1) rotate(10.401 0 -5238.33)" cx="497.521" cy="228.207" rx="2.709" ry="1.627"/><path d="M499.12 231.6c-.339-1.792-1.684-4.591-4.344-1.445-2.66 3.147 1.788 2.275 4.344 1.446zm3.135-1.316c-.576-1.481-1.869-3.587-2.439-.166-.57 3.42 1.388 1.535 2.44.166z" fill="#161851" fill-rule="nonzero"/><path d="M486.911 250.887c-7.67-5.897-2.337-19.846 1.06-23.2 2.791-3.081 1.308 2.975 2.114 3.889 2.464 3.405 11.684 1.903 5.588 5.894-14.875 9.742 5.006 24.002-8.762 13.417z" fill="#585CAB" fill-rule="nonzero"/><ellipse fill="#5F62AA" fill-rule="nonzero" transform="rotate(-159.23 135.37 245.974)" cx="135.37" cy="245.974" rx="36.121" ry="33.49"/><ellipse fill="#191D5F" fill-rule="nonzero" transform="rotate(-159.23 125.67 265.335)" cx="125.669" cy="265.335" rx="11.909" ry="4.88"/><path d="M126.686 270.895c-1.442 2.045-6.802 5.79-6.197-2.1.516-6.737 3.507-1.346 6.197 2.1zm-6.088-4.185c-2.927 1.997-8.415 2.14-4.79-4.53 3.625-6.667 4.884.97 4.79 4.53zm15.437.798c.786 4.434.701 11.035-5.929 1.97s1.19-5.09 5.93-1.97z" fill="#191D5F" fill-rule="nonzero"/><path d="M133.791 269.293c-1.562 4.46-5.484 10.976-8.68 1.37-3.197-9.605 4.455-4.915 8.68-1.37z" fill="#191D5F" fill-rule="nonzero"/><ellipse fill="#9B9EDB" fill-rule="nonzero" transform="rotate(-159.23 126.648 264.924)" cx="126.648" cy="264.924" rx="5.502" ry="2.631"/><ellipse fill="#A55252" fill-rule="nonzero" transform="rotate(-159.23 126.648 264.924)" cx="126.648" cy="264.924" rx="2.153" ry="1.196"/><path d="M129.264 261.398c-2.035 2.528-6.462 5.724-7.886-1.714-1.424-7.437 4.664-1.956 7.886 1.714zm5.586 1.848c-1.533 2.41-4.615 5.66-4.676-.616-.062-6.277 3.092-2.205 4.676.616z" fill="#5F62AA" fill-rule="nonzero"/><path d="M104.628 239.732c3.71-27.34 23.11-26.465 32.207-25.41 7.936.5 1.845 4.479 1.585 6.669-1.66 7.38 11.832 24.87-3.555 16.274-29.986-16.753-34.875 36.642-30.237 2.467z" fill="#A8ABE4" fill-rule="nonzero"/><ellipse fill="#D70240" fill-rule="nonzero" transform="rotate(158.833 255.633 245.525)" cx="255.633" cy="245.525" rx="25.276" ry="25.421"/><ellipse fill="#DA9C63" fill-rule="nonzero" transform="rotate(158.833 260.1 261.33)" cx="260.1" cy="261.331" rx="8.334" ry="3.704"/><path d="M263.332 264.016c.258 1.874-.664 6.629-4.202 1.819-3.02-4.107 1.142-2.48 4.202-1.82zm-5.163.573c-.528 2.568-3.273 5.324-4.666-.258-1.392-5.582 2.978-1.826 4.666.258zm8.307-7.066c2.566 2.154 5.741 5.973-2.08 4.016-7.822-1.957-1.872-3.492 2.08-4.016z" fill="#DA9C63" fill-rule="nonzero"/><path d="M266.196 259.638c1.374 3.313 2.54 8.953-3.784 5.014-6.325-3.94-.113-4.984 3.784-5.014z" fill="#DA9C63" fill-rule="nonzero"/><ellipse fill="#5B5148" fill-rule="nonzero" transform="rotate(158.833 260.401 260.619)" cx="260.401" cy="260.619" rx="3.85" ry="1.997"/><ellipse fill="#A55252" fill-rule="nonzero" transform="rotate(158.833 260.401 260.619)" cx="260.401" cy="260.619" rx="1.507" ry="1"/><path d="M260.023 257.326c.19 2.438-.523 6.424-4.88 2.862-4.358-3.562 1.438-3.393 4.88-2.862zm3.767-1.665c.39 2.127.393 5.489-2.699 1.927-3.093-3.562.511-2.77 2.7-1.927z" fill="#D70240" fill-rule="nonzero"/><path d="M236.82 256.932c-11.43-17.452-1.053-26.404 4.13-30.234 4.313-3.581 3.13 1.664 4.064 3.044 2.747 5.033 18.198 8.466 6.113 11.045-23.55 5.024-.019 37.96-14.307 16.145z" fill="#FFB8C1" fill-rule="nonzero"/><ellipse fill="#D70240" fill-rule="nonzero" transform="rotate(6.593 196.676 241.96)" cx="196.676" cy="241.96" rx="12.481" ry="12.676"/><ellipse fill="#B59577" fill-rule="nonzero" transform="scale(-1 1) rotate(-10.064 0 2477.673)" cx="197.624" cy="233.355" rx="4.115" ry="1.847"/><path d="M198.938 231.729c-.05-.941-.947-3.177-2.209-.482-1.077 2.3.788 1.1 2.21.482z" fill="#B59577" fill-rule="nonzero"/><path d="M194.09 234.616c.806-.54 1.71-3.158.32-2.436-1.417.735-.796 1.757-.32 2.436z" fill="#D70240" fill-rule="nonzero"/><path d="M201.075 234.6c1.041-1.302 2.22-3.477-1.388-1.763-3.607 1.714-.578 1.889 1.388 1.763z" fill="#B59577" fill-rule="nonzero"/><path d="M200.74 233.592c.353-1.752.387-4.624-2.308-2.085-2.695 2.538.416 2.448 2.308 2.085z" fill="#B59577" fill-rule="nonzero"/><ellipse fill="#5B5148" fill-rule="nonzero" transform="scale(-1 1) rotate(-10.064 0 2480.422)" cx="197.838" cy="233.674" rx="1.901" ry="1"/><ellipse fill="#A55252" fill-rule="nonzero" transform="scale(-1 1) rotate(-10.064 0 2480.421)" cx="197.838" cy="233.674" rx="1" ry="1"/><path d="M197.672 235.87c.21-1.221.026-3.32-2.383-1.944-2.41 1.374.585 1.868 2.383 1.944zm2.276-.1c-.012-1.077-.327-2.722-1.49-.68-1.163 2.04.51 1.304 1.49.68z" fill="#D70240" fill-rule="nonzero"/><path d="M187.204 246.839c-5.12-8.686.204-13.285 2.845-15.258 2.21-1.841 1.487.81 1.907 1.497 1.208 2.509 8.68 4.102 2.692 5.506-11.667 2.737-1.044 19.112-7.444 8.255z" fill="#FFB8C1" fill-rule="nonzero"/></g></svg>